<?xml version="1.0" encoding="UTF-8"?>
<svg xmlns="http://www.w3.org/2000/svg" width="1800" height="1000" viewBox="0 0 1800 1000" style="background:#f8fafc">
<line x1="319.99999993" y1="150" x2="420" y2="150" stroke="#475569" stroke-width="1.5"/><line x1="624.999999925" y1="150" x2="530" y2="150" stroke="#475569" stroke-width="1.5"/><polygon points="475,125 530,150 475,175 420,150" fill="#fef3c7" stroke="#d97706" stroke-width="2"/><text x="475" y="150" text-anchor="middle" dominant-baseline="middle" font-family="Segoe UI, Arial, sans-serif" font-size="11" fill="#92400e" font-weight="600">manages</text><text x="402" y="144" text-anchor="middle" dominant-baseline="middle" font-family="Segoe UI, Arial, sans-serif" font-size="11" fill="#0f172a" font-weight="bold">1</text><text x="548" y="144" text-anchor="middle" dominant-baseline="middle" font-family="Segoe UI, Arial, sans-serif" font-size="11" fill="#0f172a" font-weight="bold">M</text><line x1="662.5000000676041" y1="174.99999995493062" x2="497.2972972972973" y2="285.13513513513516" stroke="#475569" stroke-width="1.5"/><line x1="287.5000000676041" y1="424.9999999549306" x2="452.7027027027027" y2="314.86486486486484" stroke="#475569" stroke-width="1.5"/><polygon points="475,275 530,300 475,325 420,300" fill="#fef3c7" stroke="#d97706" stroke-width="2"/><text x="475" y="300" text-anchor="middle" dominant-baseline="middle" font-family="Segoe UI, Arial, sans-serif" font-size="11" fill="#92400e" font-weight="600">makes</text><text x="512.2742025953785" y="269.15053160308105" text-anchor="middle" dominant-baseline="middle" font-family="Segoe UI, Arial, sans-serif" font-size="11" fill="#0f172a" font-weight="bold">1</text><text x="437.7257974046215" y="318.84946839691895" text-anchor="middle" dominant-baseline="middle" font-family="Segoe UI, Arial, sans-serif" font-size="11" fill="#0f172a" font-weight="bold">M</text><line x1="700" y1="174.999999975" x2="700" y2="275" stroke="#475569" stroke-width="1.5"/><line x1="700" y1="424.999999975" x2="700" y2="325" stroke="#475569" stroke-width="1.5"/><polygon points="700,275 755,300 700,325 645,300" fill="#fef3c7" stroke="#d97706" stroke-width="2"/><text x="700" y="300" text-anchor="middle" dominant-baseline="middle" font-family="Segoe UI, Arial, sans-serif" font-size="11" fill="#92400e" font-weight="600">attends</text><text x="700" y="251" text-anchor="middle" dominant-baseline="middle" font-family="Segoe UI, Arial, sans-serif" font-size="11" fill="#0f172a" font-weight="bold">1</text><text x="700" y="337" text-anchor="middle" dominant-baseline="middle" font-family="Segoe UI, Arial, sans-serif" font-size="11" fill="#0f172a" font-weight="bold">M</text><line x1="1204.1666667623817" y1="174.99999994779182" x2="1000" y2="286.3636363636364" stroke="#475569" stroke-width="1.5"/><line x1="745.8333334290484" y1="424.9999999477918" x2="950" y2="313.6363636363636" stroke="#475569" stroke-width="1.5"/><polygon points="975,275 1030,300 975,325 920,300" fill="#fef3c7" stroke="#d97706" stroke-width="2"/><text x="975" y="300" text-anchor="middle" dominant-baseline="middle" font-family="Segoe UI, Arial, sans-serif" font-size="11" fill="#92400e" font-weight="600">conducts</text><text x="1015.8021203124589" y="271.74429801138604" text-anchor="middle" dominant-baseline="middle" font-family="Segoe UI, Arial, sans-serif" font-size="11" fill="#0f172a" font-weight="bold">1</text><text x="934.1978796875411" y="316.25570198861396" text-anchor="middle" dominant-baseline="middle" font-family="Segoe UI, Arial, sans-serif" font-size="11" fill="#0f172a" font-weight="bold">M</text><line x1="1179.99999993" y1="450" x2="1035" y2="450" stroke="#475569" stroke-width="1.5"/><line x1="769.9999999300001" y1="450" x2="915" y2="450" stroke="#475569" stroke-width="1.5"/><polygon points="975,425 1035,450 975,475 915,450" fill="#fef3c7" stroke="#d97706" stroke-width="2"/><text x="975" y="450" text-anchor="middle" dominant-baseline="middle" font-family="Segoe UI, Arial, sans-serif" font-size="11" fill="#92400e" font-weight="600">assigned_to</text><text x="1053" y="444" text-anchor="middle" dominant-baseline="middle" font-family="Segoe UI, Arial, sans-serif" font-size="11" fill="#0f172a" font-weight="bold">1</text><text x="897" y="444" text-anchor="middle" dominant-baseline="middle" font-family="Segoe UI, Arial, sans-serif" font-size="11" fill="#0f172a" font-weight="bold">M</text><line x1="681.2500000234375" y1="174.99999996875" x2="488.9830508474576" y2="431.35593220338984" stroke="#475569" stroke-width="1.5"/><line x1="268.7500000234375" y1="724.99999996875" x2="461.0169491525424" y2="468.64406779661016" stroke="#475569" stroke-width="1.5"/><polygon points="475,425 530,450 475,475 420,450" fill="#fef3c7" stroke="#d97706" stroke-width="2"/><text x="475" y="450" text-anchor="middle" dominant-baseline="middle" font-family="Segoe UI, Arial, sans-serif" font-size="11" fill="#92400e" font-weight="600">attempts</text><text x="499.7830508474576" y="410.95593220338986" text-anchor="middle" dominant-baseline="middle" font-family="Segoe UI, Arial, sans-serif" font-size="11" fill="#0f172a" font-weight="bold">1</text><text x="450.2169491525424" y="477.04406779661014" text-anchor="middle" dominant-baseline="middle" font-family="Segoe UI, Arial, sans-serif" font-size="11" fill="#0f172a" font-weight="bold">M</text><line x1="700" y1="174.999999975" x2="700" y2="575" stroke="#475569" stroke-width="1.5"/><line x1="700" y1="724.999999975" x2="700" y2="625" stroke="#475569" stroke-width="1.5"/><polygon points="700,575 755,600 700,625 645,600" fill="#fef3c7" stroke="#d97706" stroke-width="2"/><text x="700" y="600" text-anchor="middle" dominant-baseline="middle" font-family="Segoe UI, Arial, sans-serif" font-size="11" fill="#92400e" font-weight="600">submits</text><text x="700" y="551" text-anchor="middle" dominant-baseline="middle" font-family="Segoe UI, Arial, sans-serif" font-size="11" fill="#0f172a" font-weight="bold">1</text><text x="700" y="637" text-anchor="middle" dominant-baseline="middle" font-family="Segoe UI, Arial, sans-serif" font-size="11" fill="#0f172a" font-weight="bold">M</text><ellipse cx="125" cy="128" rx="40" ry="14" fill="#f1f5f9" stroke="#475569" stroke-width="1.5"/><text x="125" y="128" text-anchor="middle" dominant-baseline="middle" font-family="Segoe UI, Arial, sans-serif" font-size="10" fill="#1e293b"><tspan text-decoration="underline">id</tspan></text><line x1="165" y1="128" x2="180" y2="128" stroke="#94a3b8" stroke-width="1"/><ellipse cx="375" cy="128" rx="40" ry="14" fill="#f1f5f9" stroke="#475569" stroke-width="1.5"/><text x="375" y="128" text-anchor="middle" dominant-baseline="middle" font-family="Segoe UI, Arial, sans-serif" font-size="10" fill="#1e293b">username</text><line x1="335" y1="128" x2="320" y2="128" stroke="#94a3b8" stroke-width="1"/><ellipse cx="125" cy="172" rx="40" ry="14" fill="#f1f5f9" stroke="#475569" stroke-width="1.5"/><text x="125" y="172" text-anchor="middle" dominant-baseline="middle" font-family="Segoe UI, Arial, sans-serif" font-size="10" fill="#1e293b">password</text><line x1="165" y1="172" x2="180" y2="172" stroke="#94a3b8" stroke-width="1"/><ellipse cx="375" cy="172" rx="40" ry="14" fill="#f1f5f9" stroke="#475569" stroke-width="1.5"/><text x="375" y="172" text-anchor="middle" dominant-baseline="middle" font-family="Segoe UI, Arial, sans-serif" font-size="10" fill="#1e293b">role</text><line x1="335" y1="172" x2="320" y2="172" stroke="#94a3b8" stroke-width="1"/><rect x="180" y="125" width="140" height="50" fill="#fff" stroke="#1e3a5f" stroke-width="2.5" rx="3"/><text x="250" y="150" text-anchor="middle" dominant-baseline="middle" font-family="Segoe UI, Arial, sans-serif" font-size="13" fill="#1e293b" font-weight="bold">USERS</text><ellipse cx="570" cy="106" rx="40" ry="14" fill="#f1f5f9" stroke="#475569" stroke-width="1.5"/><text x="570" y="106" text-anchor="middle" dominant-baseline="middle" font-family="Segoe UI, Arial, sans-serif" font-size="10" fill="#1e293b"><tspan text-decoration="underline">id</tspan></text><line x1="610" y1="106" x2="625" y2="106" stroke="#94a3b8" stroke-width="1"/><ellipse cx="830" cy="106" rx="40" ry="14" fill="#f1f5f9" stroke="#475569" stroke-width="1.5"/><text x="830" y="106" text-anchor="middle" dominant-baseline="middle" font-family="Segoe UI, Arial, sans-serif" font-size="10" fill="#1e293b">nic</text><line x1="790" y1="106" x2="775" y2="106" stroke="#94a3b8" stroke-width="1"/><ellipse cx="570" cy="150" rx="40" ry="14" fill="#f1f5f9" stroke="#475569" stroke-width="1.5"/><text x="570" y="150" text-anchor="middle" dominant-baseline="middle" font-family="Segoe UI, Arial, sans-serif" font-size="10" fill="#1e293b">name</text><line x1="610" y1="150" x2="625" y2="150" stroke="#94a3b8" stroke-width="1"/><ellipse cx="830" cy="150" rx="40" ry="14" fill="#f1f5f9" stroke="#475569" stroke-width="1.5"/><text x="830" y="150" text-anchor="middle" dominant-baseline="middle" font-family="Segoe UI, Arial, sans-serif" font-size="10" fill="#1e293b">currentStage</text><line x1="790" y1="150" x2="775" y2="150" stroke="#94a3b8" stroke-width="1"/><ellipse cx="570" cy="194" rx="40" ry="14" fill="#f1f5f9" stroke="#475569" stroke-width="1.5"/><text x="570" y="194" text-anchor="middle" dominant-baseline="middle" font-family="Segoe UI, Arial, sans-serif" font-size="10" fill="#1e293b">status</text><line x1="610" y1="194" x2="625" y2="194" stroke="#94a3b8" stroke-width="1"/><ellipse cx="830" cy="194" rx="40" ry="14" fill="#f1f5f9" stroke="#475569" stroke-width="1.5"/><text x="830" y="194" text-anchor="middle" dominant-baseline="middle" font-family="Segoe UI, Arial, sans-serif" font-size="10" fill="#1e293b">licenseClass</text><line x1="790" y1="194" x2="775" y2="194" stroke="#94a3b8" stroke-width="1"/><rect x="625" y="125" width="150" height="50" fill="#fff" stroke="#1e3a5f" stroke-width="2.5" rx="3"/><text x="700" y="150" text-anchor="middle" dominant-baseline="middle" font-family="Segoe UI, Arial, sans-serif" font-size="13" fill="#1e293b" font-weight="bold">STUDENTS</text><ellipse cx="1120" cy="128" rx="40" ry="14" fill="#f1f5f9" stroke="#475569" stroke-width="1.5"/><text x="1120" y="128" text-anchor="middle" dominant-baseline="middle" font-family="Segoe UI, Arial, sans-serif" font-size="10" fill="#1e293b"><tspan text-decoration="underline">id</tspan></text><line x1="1160" y1="128" x2="1175" y2="128" stroke="#94a3b8" stroke-width="1"/><ellipse cx="1380" cy="128" rx="40" ry="14" fill="#f1f5f9" stroke="#475569" stroke-width="1.5"/><text x="1380" y="128" text-anchor="middle" dominant-baseline="middle" font-family="Segoe UI, Arial, sans-serif" font-size="10" fill="#1e293b">name</text><line x1="1340" y1="128" x2="1325" y2="128" stroke="#94a3b8" stroke-width="1"/><ellipse cx="1120" cy="172" rx="40" ry="14" fill="#f1f5f9" stroke="#475569" stroke-width="1.5"/><text x="1120" y="172" text-anchor="middle" dominant-baseline="middle" font-family="Segoe UI, Arial, sans-serif" font-size="10" fill="#1e293b">licenseNumber</text><line x1="1160" y1="172" x2="1175" y2="172" stroke="#94a3b8" stroke-width="1"/><ellipse cx="1380" cy="172" rx="40" ry="14" fill="#f1f5f9" stroke="#475569" stroke-width="1.5"/><text x="1380" y="172" text-anchor="middle" dominant-baseline="middle" font-family="Segoe UI, Arial, sans-serif" font-size="10" fill="#1e293b">specialization</text><line x1="1340" y1="172" x2="1325" y2="172" stroke="#94a3b8" stroke-width="1"/><rect x="1175" y="125" width="150" height="50" fill="#fff" stroke="#1e3a5f" stroke-width="2.5" rx="3"/><text x="1250" y="150" text-anchor="middle" dominant-baseline="middle" font-family="Segoe UI, Arial, sans-serif" font-size="13" fill="#1e293b" font-weight="bold">INSTRUCTORS</text><ellipse cx="125" cy="428" rx="40" ry="14" fill="#f1f5f9" stroke="#475569" stroke-width="1.5"/><text x="125" y="428" text-anchor="middle" dominant-baseline="middle" font-family="Segoe UI, Arial, sans-serif" font-size="10" fill="#1e293b"><tspan text-decoration="underline">id</tspan></text><line x1="165" y1="428" x2="180" y2="428" stroke="#94a3b8" stroke-width="1"/><ellipse cx="375" cy="428" rx="40" ry="14" fill="#f1f5f9" stroke="#475569" stroke-width="1.5"/><text x="375" y="428" text-anchor="middle" dominant-baseline="middle" font-family="Segoe UI, Arial, sans-serif" font-size="10" fill="#1e293b">studentId (FK)</text><line x1="335" y1="428" x2="320" y2="428" stroke="#94a3b8" stroke-width="1"/><ellipse cx="125" cy="472" rx="40" ry="14" fill="#f1f5f9" stroke="#475569" stroke-width="1.5"/><text x="125" y="472" text-anchor="middle" dominant-baseline="middle" font-family="Segoe UI, Arial, sans-serif" font-size="10" fill="#1e293b">amount</text><line x1="165" y1="472" x2="180" y2="472" stroke="#94a3b8" stroke-width="1"/><ellipse cx="375" cy="472" rx="40" ry="14" fill="#f1f5f9" stroke="#475569" stroke-width="1.5"/><text x="375" y="472" text-anchor="middle" dominant-baseline="middle" font-family="Segoe UI, Arial, sans-serif" font-size="10" fill="#1e293b">paymentType</text><line x1="335" y1="472" x2="320" y2="472" stroke="#94a3b8" stroke-width="1"/><rect x="180" y="425" width="140" height="50" fill="#fff" stroke="#1e3a5f" stroke-width="2.5" rx="3"/><text x="250" y="450" text-anchor="middle" dominant-baseline="middle" font-family="Segoe UI, Arial, sans-serif" font-size="13" fill="#1e293b" font-weight="bold">PAYMENTS</text><ellipse cx="575" cy="428" rx="40" ry="14" fill="#f1f5f9" stroke="#475569" stroke-width="1.5"/><text x="575" y="428" text-anchor="middle" dominant-baseline="middle" font-family="Segoe UI, Arial, sans-serif" font-size="10" fill="#1e293b"><tspan text-decoration="underline">id</tspan></text><line x1="615" y1="428" x2="630" y2="428" stroke="#94a3b8" stroke-width="1"/><ellipse cx="825" cy="428" rx="40" ry="14" fill="#f1f5f9" stroke="#475569" stroke-width="1.5"/><text x="825" y="428" text-anchor="middle" dominant-baseline="middle" font-family="Segoe UI, Arial, sans-serif" font-size="10" fill="#1e293b">studentId (FK)</text><line x1="785" y1="428" x2="770" y2="428" stroke="#94a3b8" stroke-width="1"/><ellipse cx="575" cy="472" rx="40" ry="14" fill="#f1f5f9" stroke="#475569" stroke-width="1.5"/><text x="575" y="472" text-anchor="middle" dominant-baseline="middle" font-family="Segoe UI, Arial, sans-serif" font-size="10" fill="#1e293b">instructorId (FK)</text><line x1="615" y1="472" x2="630" y2="472" stroke="#94a3b8" stroke-width="1"/><ellipse cx="825" cy="472" rx="40" ry="14" fill="#f1f5f9" stroke="#475569" stroke-width="1.5"/><text x="825" y="472" text-anchor="middle" dominant-baseline="middle" font-family="Segoe UI, Arial, sans-serif" font-size="10" fill="#1e293b">vehicleId (FK)</text><line x1="785" y1="472" x2="770" y2="472" stroke="#94a3b8" stroke-width="1"/><rect x="630" y="425" width="140" height="50" fill="#fff" stroke="#1e3a5f" stroke-width="2.5" rx="3"/><text x="700" y="450" text-anchor="middle" dominant-baseline="middle" font-family="Segoe UI, Arial, sans-serif" font-size="13" fill="#1e293b" font-weight="bold">LESSONS</text><ellipse cx="1125" cy="428" rx="40" ry="14" fill="#f1f5f9" stroke="#475569" stroke-width="1.5"/><text x="1125" y="428" text-anchor="middle" dominant-baseline="middle" font-family="Segoe UI, Arial, sans-serif" font-size="10" fill="#1e293b"><tspan text-decoration="underline">id</tspan></text><line x1="1165" y1="428" x2="1180" y2="428" stroke="#94a3b8" stroke-width="1"/><ellipse cx="1375" cy="428" rx="40" ry="14" fill="#f1f5f9" stroke="#475569" stroke-width="1.5"/><text x="1375" y="428" text-anchor="middle" dominant-baseline="middle" font-family="Segoe UI, Arial, sans-serif" font-size="10" fill="#1e293b">plateNumber</text><line x1="1335" y1="428" x2="1320" y2="428" stroke="#94a3b8" stroke-width="1"/><ellipse cx="1125" cy="472" rx="40" ry="14" fill="#f1f5f9" stroke="#475569" stroke-width="1.5"/><text x="1125" y="472" text-anchor="middle" dominant-baseline="middle" font-family="Segoe UI, Arial, sans-serif" font-size="10" fill="#1e293b">transmission</text><line x1="1165" y1="472" x2="1180" y2="472" stroke="#94a3b8" stroke-width="1"/><ellipse cx="1375" cy="472" rx="40" ry="14" fill="#f1f5f9" stroke="#475569" stroke-width="1.5"/><text x="1375" y="472" text-anchor="middle" dominant-baseline="middle" font-family="Segoe UI, Arial, sans-serif" font-size="10" fill="#1e293b">status</text><line x1="1335" y1="472" x2="1320" y2="472" stroke="#94a3b8" stroke-width="1"/><rect x="1180" y="425" width="140" height="50" fill="#fff" stroke="#1e3a5f" stroke-width="2.5" rx="3"/><text x="1250" y="450" text-anchor="middle" dominant-baseline="middle" font-family="Segoe UI, Arial, sans-serif" font-size="13" fill="#1e293b" font-weight="bold">VEHICLES</text><ellipse cx="130" cy="728" rx="40" ry="14" fill="#f1f5f9" stroke="#475569" stroke-width="1.5"/><text x="130" y="728" text-anchor="middle" dominant-baseline="middle" font-family="Segoe UI, Arial, sans-serif" font-size="10" fill="#1e293b"><tspan text-decoration="underline">id</tspan></text><line x1="170" y1="728" x2="185" y2="728" stroke="#94a3b8" stroke-width="1"/><ellipse cx="370" cy="728" rx="40" ry="14" fill="#f1f5f9" stroke="#475569" stroke-width="1.5"/><text x="370" y="728" text-anchor="middle" dominant-baseline="middle" font-family="Segoe UI, Arial, sans-serif" font-size="10" fill="#1e293b">studentId (FK)</text><line x1="330" y1="728" x2="315" y2="728" stroke="#94a3b8" stroke-width="1"/><ellipse cx="130" cy="772" rx="40" ry="14" fill="#f1f5f9" stroke="#475569" stroke-width="1.5"/><text x="130" y="772" text-anchor="middle" dominant-baseline="middle" font-family="Segoe UI, Arial, sans-serif" font-size="10" fill="#1e293b">type</text><line x1="170" y1="772" x2="185" y2="772" stroke="#94a3b8" stroke-width="1"/><ellipse cx="370" cy="772" rx="40" ry="14" fill="#f1f5f9" stroke="#475569" stroke-width="1.5"/><text x="370" y="772" text-anchor="middle" dominant-baseline="middle" font-family="Segoe UI, Arial, sans-serif" font-size="10" fill="#1e293b">result</text><line x1="330" y1="772" x2="315" y2="772" stroke="#94a3b8" stroke-width="1"/><rect x="185" y="725" width="130" height="50" fill="#fff" stroke="#1e3a5f" stroke-width="2.5" rx="3"/><text x="250" y="750" text-anchor="middle" dominant-baseline="middle" font-family="Segoe UI, Arial, sans-serif" font-size="13" fill="#1e293b" font-weight="bold">EXAMS</text><ellipse cx="570" cy="728" rx="40" ry="14" fill="#f1f5f9" stroke="#475569" stroke-width="1.5"/><text x="570" y="728" text-anchor="middle" dominant-baseline="middle" font-family="Segoe UI, Arial, sans-serif" font-size="10" fill="#1e293b"><tspan text-decoration="underline">id</tspan></text><line x1="610" y1="728" x2="625" y2="728" stroke="#94a3b8" stroke-width="1"/><ellipse cx="830" cy="728" rx="40" ry="14" fill="#f1f5f9" stroke="#475569" stroke-width="1.5"/><text x="830" y="728" text-anchor="middle" dominant-baseline="middle" font-family="Segoe UI, Arial, sans-serif" font-size="10" fill="#1e293b">studentId (FK)</text><line x1="790" y1="728" x2="775" y2="728" stroke="#94a3b8" stroke-width="1"/><ellipse cx="570" cy="772" rx="40" ry="14" fill="#f1f5f9" stroke="#475569" stroke-width="1.5"/><text x="570" y="772" text-anchor="middle" dominant-baseline="middle" font-family="Segoe UI, Arial, sans-serif" font-size="10" fill="#1e293b">documentType</text><line x1="610" y1="772" x2="625" y2="772" stroke="#94a3b8" stroke-width="1"/><ellipse cx="830" cy="772" rx="40" ry="14" fill="#f1f5f9" stroke="#475569" stroke-width="1.5"/><text x="830" y="772" text-anchor="middle" dominant-baseline="middle" font-family="Segoe UI, Arial, sans-serif" font-size="10" fill="#1e293b">isVerified</text><line x1="790" y1="772" x2="775" y2="772" stroke="#94a3b8" stroke-width="1"/><rect x="625" y="725" width="150" height="50" fill="#fff" stroke="#1e3a5f" stroke-width="2.5" rx="3"/><text x="700" y="750" text-anchor="middle" dominant-baseline="middle" font-family="Segoe UI, Arial, sans-serif" font-size="13" fill="#1e293b" font-weight="bold">DOCUMENTS</text><text x="900" y="35" text-anchor="middle" dominant-baseline="middle" font-family="Segoe UI, Arial, sans-serif" font-size="20" fill="#1e3a5f" font-weight="bold">LankaDrive - Entity Relationship Diagram (Chen's Notation)</text><text x="900" y="62" text-anchor="middle" dominant-baseline="middle" font-family="Segoe UI, Arial, sans-serif" font-size="13" fill="#64748b">Professional Driving School Management System</text><rect x="40" y="945" width="18" height="18" fill="#fff" stroke="#1e3a5f" stroke-width="2" rx="3"/><text x="100" y="954" text-anchor="start" dominant-baseline="middle" font-family="Segoe UI, Arial, sans-serif" font-size="12" fill="#1e293b">Entity</text><polygon points="210,947 222,954 210,961 198,954" fill="#fef3c7" stroke="#d97706" stroke-width="2"/><text x="270" y="954" text-anchor="start" dominant-baseline="middle" font-family="Segoe UI, Arial, sans-serif" font-size="12" fill="#1e293b">Relationship</text><ellipse cx="390" cy="954" rx="16" ry="9" fill="#f1f5f9" stroke="#475569" stroke-width="1.5"/><text x="435" y="954" text-anchor="start" dominant-baseline="middle" font-family="Segoe UI, Arial, sans-serif" font-size="12" fill="#1e293b">Attribute</text><text x="600" y="954" text-anchor="start" dominant-baseline="middle" font-family="Segoe UI, Arial, sans-serif" font-size="12" fill="#64748b">PK = Primary Key  |  FK = Foreign Key  |  1 = One  |  M = Many</text>
</svg>